# xmcd
#
# Track frame offsets: 
#        183
#        15698
#        25585
#        40268
#        50315
#        61785
#        73890
#        87548
#        98630
#        107205
#        118855
#        129320
#        138315
#        148770
#        159688
#        171498
#        184983
#
# Disc length: 2614 seconds
#
# Revision: 0
# Processed by: cddbd v1.5.2PL0 Copyright (c) Steve Scherf et al.
# Submitted via: ExactAudioCopy v0.95b3
#
DISCID=f40a3411
DTITLE=Mloci - 1
DYEAR=1991
DGENRE=Folk
TTITLE0=Odviate vetrom
TTITLE1=Salene sestri
TTITLE2=Buda
TTITLE3=Zahradka
TTITLE4=Digitalni Dezi
TTITLE5=Jazycek
TTITLE6=Presovska pesa zona
TTITLE7=Pejrak
TTITLE8=Sarisski protestsong
TTITLE9=Autobus c.33
TTITLE10=Pohostinstvo Trinastka
TTITLE11=MDZ
TTITLE12=Lachvate ludze
TTITLE13=Bosorka
TTITLE14=Povice jej
TTITLE15=Trabant
TTITLE16=Marja Kovalova
EXTD=
EXTT0=
EXTT1=
EXTT2=
EXTT3=
EXTT4=
EXTT5=
EXTT6=
EXTT7=
EXTT8=
EXTT9=
EXTT10=
EXTT11=
EXTT12=
EXTT13=
EXTT14=
EXTT15=
EXTT16=
PLAYORDER=
